<svg width="24" height="24" viewBox="0 0 24 24" fill="none" xmlns="http://www.w3.org/2000/svg">
<path d="M19.1997 4.39777L2.89973 10.6978C1.79973 11.0978 1.79973 11.7978 2.69973 11.9978L6.79973 13.2978L8.39973 18.0978C8.59973 18.5978 8.49973 18.7978 8.99973 18.7978C9.39973 18.7978 9.59973 18.5978 9.79973 18.3978C9.89973 18.2978 10.7997 17.3978 11.7997 16.3978L15.9997 19.4978C16.7997 19.8978 17.2997 19.6978 17.4997 18.7978L20.2997 5.69777C20.5997 4.59777 19.8997 3.99777 19.1997 4.39777ZM17.0997 7.39777L9.29973 14.4978L8.99973 17.7978L7.39973 12.9978L16.5997 7.19777C16.9997 6.89777 17.3997 7.09777 17.0997 7.39777Z" fill="#FFDC2D"/>
</svg>
