<svg width="177" height="177" viewBox="0 0 177 177" fill="none" xmlns="http://www.w3.org/2000/svg">
<path d="M0 0H177V89.0091C177 111.834 164.86 132.877 145.081 144.332L88.5424 177L32.0043 144.332C12.2245 132.962 0.0848908 111.834 0.0848908 89.0091V0H0Z" fill="#FFDC2D"/>
<path d="M147.5 77.88C147.5 109.161 121.085 134.52 88.5 134.52C55.9152 134.52 29.5 109.161 29.5 77.88C29.5 46.5986 55.9152 21.24 88.5 21.24C121.085 21.24 147.5 46.5986 147.5 77.88Z" fill="white"/>
<path d="M130.75 77.8799C130.75 100.16 111.912 118.36 88.5 118.36C65.0882 118.36 46.25 100.16 46.25 77.8799C46.25 55.5996 65.0882 37.3999 88.5 37.3999C111.912 37.3999 130.75 55.5996 130.75 77.8799Z" fill="#D6D6D6" stroke="#E8E8E8" stroke-width="4"/>
<path d="M55.2737 61.7079V28.6182C55.2737 27.0556 55.8242 25.7459 56.9253 24.6888C58.0264 23.6318 59.3908 23.1033 61.0184 23.1033C62.6461 23.1033 64.0105 23.6318 65.1116 24.6888C66.2126 25.7459 66.7632 27.0556 66.7632 28.6182V61.7079H72.5079V28.6182C72.5079 27.0556 73.0584 25.7459 74.1595 24.6888C75.2606 23.6318 76.625 23.1033 78.2526 23.1033C79.8803 23.1033 81.2447 23.6318 82.3458 24.6888C83.4468 25.7459 83.9974 27.0556 83.9974 28.6182V61.7079C83.9974 66.8552 82.3458 71.3591 79.0425 75.2195C75.7393 79.08 71.6462 81.6536 66.7632 82.9404V127.887C66.7632 129.45 66.2126 130.76 65.1116 131.817C64.0105 132.874 62.6461 133.402 61.0184 133.402C59.3908 133.402 58.0264 132.874 56.9253 131.817C55.8242 130.76 55.2737 129.45 55.2737 127.887V82.9404C50.3907 81.6536 46.2975 79.08 42.9943 75.2195C39.6911 71.3591 38.0395 66.8552 38.0395 61.7079V28.6182C38.0395 27.0556 38.59 25.7459 39.6911 24.6888C40.7922 23.6318 42.1566 23.1033 43.7842 23.1033C45.4119 23.1033 46.7763 23.6318 47.8774 24.6888C48.9784 25.7459 49.529 27.0556 49.529 28.6182V61.7079H55.2737ZM112.721 89.2826H101.232C99.6039 89.2826 98.2395 88.7541 97.1385 87.6971C96.0374 86.6401 95.4869 85.3303 95.4869 83.7677V50.678C95.4869 44.2439 97.9523 38.0396 102.883 32.0651C107.814 26.0905 112.913 23.1033 118.179 23.1033C119.902 23.1033 121.338 23.7467 122.487 25.0335C123.636 26.3203 124.211 27.8369 124.211 29.5833V127.887C124.211 129.45 123.66 130.76 122.559 131.817C121.458 132.874 120.093 133.402 118.466 133.402C116.838 133.402 115.474 132.874 114.373 131.817C113.272 130.76 112.721 129.45 112.721 127.887V89.2826Z" fill="#434343"/>
</svg>
